<mxfile host="app.diagrams.net" modified="2021-07-15T13:13:29.593Z" agent="5.0 (Macintosh; Intel Mac OS X 10_14_4) AppleWebKit/537.36 (KHTML, like Gecko) Chrome/90.0.4430.212 Safari/537.36" etag="xwEHHirC9r9z0W7A0gLZ" version="14.8.4" type="github">
  <diagram id="2ZFNNBM-ACg8ZISX8_SK" name="Page-1">
    <mxGraphModel dx="1396" dy="466" grid="1" gridSize="10" guides="1" tooltips="1" connect="1" arrows="1" fold="1" page="1" pageScale="1" pageWidth="1200" pageHeight="1920" math="0" shadow="0">
      <root>
        <mxCell id="0" />
        <mxCell id="1" parent="0" />
        <mxCell id="_Ceq1OB2dmYE29qhMk_X-7" style="edgeStyle=orthogonalEdgeStyle;rounded=0;orthogonalLoop=1;jettySize=auto;html=1;exitX=0.5;exitY=1;exitDx=0;exitDy=0;exitPerimeter=0;" parent="1" source="_Ceq1OB2dmYE29qhMk_X-1" target="_Ceq1OB2dmYE29qhMk_X-2" edge="1">
          <mxGeometry relative="1" as="geometry" />
        </mxCell>
        <mxCell id="_Ceq1OB2dmYE29qhMk_X-1" value="开始" style="strokeWidth=2;html=1;shape=mxgraph.flowchart.start_1;whiteSpace=wrap;" parent="1" vertex="1">
          <mxGeometry x="36.5" y="40" width="86" height="40" as="geometry" />
        </mxCell>
        <mxCell id="_Ceq1OB2dmYE29qhMk_X-8" style="edgeStyle=orthogonalEdgeStyle;rounded=0;orthogonalLoop=1;jettySize=auto;html=1;exitX=0.5;exitY=1;exitDx=0;exitDy=0;entryX=0.5;entryY=0;entryDx=0;entryDy=0;entryPerimeter=0;" parent="1" source="_Ceq1OB2dmYE29qhMk_X-2" target="_Ceq1OB2dmYE29qhMk_X-3" edge="1">
          <mxGeometry relative="1" as="geometry" />
        </mxCell>
        <mxCell id="_Ceq1OB2dmYE29qhMk_X-2" value="统计单位时间内的交易数据" style="rounded=1;whiteSpace=wrap;html=1;absoluteArcSize=1;arcSize=14;strokeWidth=2;" parent="1" vertex="1">
          <mxGeometry x="33.5" y="150" width="92" height="50" as="geometry" />
        </mxCell>
        <mxCell id="_Ceq1OB2dmYE29qhMk_X-5" style="edgeStyle=orthogonalEdgeStyle;rounded=0;orthogonalLoop=1;jettySize=auto;html=1;exitX=1;exitY=0.5;exitDx=0;exitDy=0;exitPerimeter=0;entryX=0;entryY=0.5;entryDx=0;entryDy=0;" parent="1" source="_Ceq1OB2dmYE29qhMk_X-3" target="_Ceq1OB2dmYE29qhMk_X-4" edge="1">
          <mxGeometry relative="1" as="geometry" />
        </mxCell>
        <mxCell id="_Ceq1OB2dmYE29qhMk_X-9" value="是" style="edgeLabel;html=1;align=center;verticalAlign=middle;resizable=0;points=[];" parent="_Ceq1OB2dmYE29qhMk_X-5" vertex="1" connectable="0">
          <mxGeometry x="-0.0571" relative="1" as="geometry">
            <mxPoint as="offset" />
          </mxGeometry>
        </mxCell>
        <mxCell id="_Ceq1OB2dmYE29qhMk_X-11" style="edgeStyle=orthogonalEdgeStyle;rounded=0;orthogonalLoop=1;jettySize=auto;html=1;exitX=0.5;exitY=1;exitDx=0;exitDy=0;exitPerimeter=0;entryX=0.5;entryY=0;entryDx=0;entryDy=0;entryPerimeter=0;" parent="1" source="_Ceq1OB2dmYE29qhMk_X-3" target="9dohXg2FG20YzdyysSwt-6" edge="1">
          <mxGeometry relative="1" as="geometry" />
        </mxCell>
        <mxCell id="_Ceq1OB2dmYE29qhMk_X-12" value="否" style="edgeLabel;html=1;align=center;verticalAlign=middle;resizable=0;points=[];" parent="_Ceq1OB2dmYE29qhMk_X-11" vertex="1" connectable="0">
          <mxGeometry x="-0.2" relative="1" as="geometry">
            <mxPoint as="offset" />
          </mxGeometry>
        </mxCell>
        <mxCell id="_Ceq1OB2dmYE29qhMk_X-3" value="为起始时刻？或与上次统计时间间隔太长？" style="strokeWidth=2;html=1;shape=mxgraph.flowchart.decision;whiteSpace=wrap;" parent="1" vertex="1">
          <mxGeometry x="29.5" y="240" width="100" height="90" as="geometry" />
        </mxCell>
        <mxCell id="_Ceq1OB2dmYE29qhMk_X-6" style="edgeStyle=orthogonalEdgeStyle;rounded=0;orthogonalLoop=1;jettySize=auto;html=1;exitX=0.5;exitY=0;exitDx=0;exitDy=0;" parent="1" source="_Ceq1OB2dmYE29qhMk_X-17" edge="1">
          <mxGeometry relative="1" as="geometry">
            <mxPoint x="79.5" y="110" as="targetPoint" />
            <Array as="points">
              <mxPoint x="388" y="110" />
            </Array>
          </mxGeometry>
        </mxCell>
        <mxCell id="_Ceq1OB2dmYE29qhMk_X-18" style="edgeStyle=orthogonalEdgeStyle;rounded=0;orthogonalLoop=1;jettySize=auto;html=1;exitX=1;exitY=0.5;exitDx=0;exitDy=0;entryX=0;entryY=0.5;entryDx=0;entryDy=0;" parent="1" source="_Ceq1OB2dmYE29qhMk_X-4" target="_Ceq1OB2dmYE29qhMk_X-17" edge="1">
          <mxGeometry relative="1" as="geometry" />
        </mxCell>
        <mxCell id="_Ceq1OB2dmYE29qhMk_X-4" value="【上涨计数】为0，更新【前次价格】" style="rounded=1;whiteSpace=wrap;html=1;absoluteArcSize=1;arcSize=14;strokeWidth=2;" parent="1" vertex="1">
          <mxGeometry x="179.5" y="255" width="100" height="60" as="geometry" />
        </mxCell>
        <mxCell id="_Ceq1OB2dmYE29qhMk_X-17" value="不交易" style="rounded=1;whiteSpace=wrap;html=1;absoluteArcSize=1;arcSize=14;strokeWidth=2;" parent="1" vertex="1">
          <mxGeometry x="337" y="255" width="100" height="60" as="geometry" />
        </mxCell>
        <mxCell id="_Ceq1OB2dmYE29qhMk_X-29" value="否" style="edgeStyle=orthogonalEdgeStyle;rounded=0;orthogonalLoop=1;jettySize=auto;html=1;exitX=1;exitY=0.5;exitDx=0;exitDy=0;exitPerimeter=0;entryX=0;entryY=0.5;entryDx=0;entryDy=0;" parent="1" source="_Ceq1OB2dmYE29qhMk_X-24" target="_Ceq1OB2dmYE29qhMk_X-28" edge="1">
          <mxGeometry relative="1" as="geometry" />
        </mxCell>
        <mxCell id="_Ceq1OB2dmYE29qhMk_X-50" style="edgeStyle=orthogonalEdgeStyle;rounded=0;orthogonalLoop=1;jettySize=auto;html=1;exitX=0.5;exitY=1;exitDx=0;exitDy=0;exitPerimeter=0;entryX=0.5;entryY=0;entryDx=0;entryDy=0;entryPerimeter=0;" parent="1" source="_Ceq1OB2dmYE29qhMk_X-24" target="_Ceq1OB2dmYE29qhMk_X-32" edge="1">
          <mxGeometry relative="1" as="geometry">
            <mxPoint x="139.5" y="760" as="sourcePoint" />
            <mxPoint x="79" y="768" as="targetPoint" />
          </mxGeometry>
        </mxCell>
        <mxCell id="_Ceq1OB2dmYE29qhMk_X-51" value="是" style="edgeLabel;html=1;align=center;verticalAlign=middle;resizable=0;points=[];" parent="_Ceq1OB2dmYE29qhMk_X-50" vertex="1" connectable="0">
          <mxGeometry x="-0.0811" y="1" relative="1" as="geometry">
            <mxPoint x="-1" y="-1" as="offset" />
          </mxGeometry>
        </mxCell>
        <mxCell id="_Ceq1OB2dmYE29qhMk_X-24" value="本次与【前次价格】的差值是否显著？" style="strokeWidth=2;html=1;shape=mxgraph.flowchart.decision;whiteSpace=wrap;" parent="1" vertex="1">
          <mxGeometry x="29.5" y="640" width="100" height="90" as="geometry" />
        </mxCell>
        <mxCell id="_Ceq1OB2dmYE29qhMk_X-31" style="edgeStyle=orthogonalEdgeStyle;rounded=0;orthogonalLoop=1;jettySize=auto;html=1;exitX=1;exitY=0.5;exitDx=0;exitDy=0;entryX=0;entryY=0.5;entryDx=0;entryDy=0;entryPerimeter=0;" parent="1" source="_Ceq1OB2dmYE29qhMk_X-28" target="_Ceq1OB2dmYE29qhMk_X-95" edge="1">
          <mxGeometry relative="1" as="geometry">
            <mxPoint x="447.5" y="563" as="targetPoint" />
          </mxGeometry>
        </mxCell>
        <mxCell id="_Ceq1OB2dmYE29qhMk_X-28" value="【上涨计数】、【前次价格】均不变" style="rounded=1;whiteSpace=wrap;html=1;absoluteArcSize=1;arcSize=14;strokeWidth=2;" parent="1" vertex="1">
          <mxGeometry x="169" y="655" width="110" height="60" as="geometry" />
        </mxCell>
        <mxCell id="_Ceq1OB2dmYE29qhMk_X-36" style="edgeStyle=orthogonalEdgeStyle;rounded=0;orthogonalLoop=1;jettySize=auto;html=1;exitX=1;exitY=0.5;exitDx=0;exitDy=0;exitPerimeter=0;entryX=0;entryY=0.5;entryDx=0;entryDy=0;" parent="1" source="_Ceq1OB2dmYE29qhMk_X-32" target="_Ceq1OB2dmYE29qhMk_X-35" edge="1">
          <mxGeometry relative="1" as="geometry" />
        </mxCell>
        <mxCell id="_Ceq1OB2dmYE29qhMk_X-37" value="是" style="edgeLabel;html=1;align=center;verticalAlign=middle;resizable=0;points=[];" parent="_Ceq1OB2dmYE29qhMk_X-36" vertex="1" connectable="0">
          <mxGeometry x="-0.3465" y="-1" relative="1" as="geometry">
            <mxPoint as="offset" />
          </mxGeometry>
        </mxCell>
        <mxCell id="_Ceq1OB2dmYE29qhMk_X-46" value="否" style="edgeStyle=orthogonalEdgeStyle;rounded=0;orthogonalLoop=1;jettySize=auto;html=1;exitX=0.5;exitY=1;exitDx=0;exitDy=0;exitPerimeter=0;" parent="1" source="_Ceq1OB2dmYE29qhMk_X-32" target="_Ceq1OB2dmYE29qhMk_X-45" edge="1">
          <mxGeometry relative="1" as="geometry" />
        </mxCell>
        <mxCell id="_Ceq1OB2dmYE29qhMk_X-32" value="本次是否高于【前次价格】？" style="strokeWidth=2;html=1;shape=mxgraph.flowchart.decision;whiteSpace=wrap;" parent="1" vertex="1">
          <mxGeometry x="29.5" y="773" width="100" height="90" as="geometry" />
        </mxCell>
        <mxCell id="_Ceq1OB2dmYE29qhMk_X-39" value="" style="edgeStyle=orthogonalEdgeStyle;rounded=0;orthogonalLoop=1;jettySize=auto;html=1;exitX=1;exitY=0.5;exitDx=0;exitDy=0;entryX=0;entryY=0.5;entryDx=0;entryDy=0;entryPerimeter=0;" parent="1" source="_Ceq1OB2dmYE29qhMk_X-35" target="_Ceq1OB2dmYE29qhMk_X-38" edge="1">
          <mxGeometry relative="1" as="geometry" />
        </mxCell>
        <mxCell id="_Ceq1OB2dmYE29qhMk_X-35" value="【上涨计数】加1，更新【前次价格】" style="rounded=1;whiteSpace=wrap;html=1;absoluteArcSize=1;arcSize=14;strokeWidth=2;" parent="1" vertex="1">
          <mxGeometry x="174" y="780.5" width="100" height="75" as="geometry" />
        </mxCell>
        <mxCell id="_Ceq1OB2dmYE29qhMk_X-40" style="edgeStyle=orthogonalEdgeStyle;rounded=0;orthogonalLoop=1;jettySize=auto;html=1;exitX=1;exitY=0.5;exitDx=0;exitDy=0;exitPerimeter=0;entryX=1;entryY=0.5;entryDx=0;entryDy=0;" parent="1" source="_Ceq1OB2dmYE29qhMk_X-38" target="_Ceq1OB2dmYE29qhMk_X-17" edge="1">
          <mxGeometry relative="1" as="geometry">
            <Array as="points">
              <mxPoint x="458" y="818" />
              <mxPoint x="458" y="285" />
            </Array>
          </mxGeometry>
        </mxCell>
        <mxCell id="_Ceq1OB2dmYE29qhMk_X-41" value="否" style="edgeLabel;html=1;align=center;verticalAlign=middle;resizable=0;points=[];" parent="_Ceq1OB2dmYE29qhMk_X-40" vertex="1" connectable="0">
          <mxGeometry x="-0.2644" y="-1" relative="1" as="geometry">
            <mxPoint x="-29" y="71" as="offset" />
          </mxGeometry>
        </mxCell>
        <mxCell id="_Ceq1OB2dmYE29qhMk_X-43" value="是" style="edgeStyle=orthogonalEdgeStyle;rounded=0;orthogonalLoop=1;jettySize=auto;html=1;exitX=0.5;exitY=1;exitDx=0;exitDy=0;exitPerimeter=0;entryX=0;entryY=0.5;entryDx=0;entryDy=0;" parent="1" source="_Ceq1OB2dmYE29qhMk_X-38" target="_Ceq1OB2dmYE29qhMk_X-42" edge="1">
          <mxGeometry relative="1" as="geometry" />
        </mxCell>
        <mxCell id="_Ceq1OB2dmYE29qhMk_X-38" value="【上涨计数】是否大于或等于买入阈值d？" style="strokeWidth=2;html=1;shape=mxgraph.flowchart.decision;whiteSpace=wrap;" parent="1" vertex="1">
          <mxGeometry x="329.5" y="773" width="100" height="90" as="geometry" />
        </mxCell>
        <mxCell id="_Ceq1OB2dmYE29qhMk_X-44" style="edgeStyle=orthogonalEdgeStyle;rounded=0;orthogonalLoop=1;jettySize=auto;html=1;exitX=1;exitY=0.5;exitDx=0;exitDy=0;" parent="1" source="_Ceq1OB2dmYE29qhMk_X-42" edge="1">
          <mxGeometry relative="1" as="geometry">
            <mxPoint x="78" y="110" as="targetPoint" />
            <Array as="points">
              <mxPoint x="673" y="909" />
              <mxPoint x="673" y="110" />
            </Array>
          </mxGeometry>
        </mxCell>
        <mxCell id="_Ceq1OB2dmYE29qhMk_X-42" value="买入" style="rounded=1;whiteSpace=wrap;html=1;absoluteArcSize=1;arcSize=14;strokeWidth=2;" parent="1" vertex="1">
          <mxGeometry x="440" y="890" width="90" height="40" as="geometry" />
        </mxCell>
        <mxCell id="_Ceq1OB2dmYE29qhMk_X-47" style="edgeStyle=orthogonalEdgeStyle;rounded=0;orthogonalLoop=1;jettySize=auto;html=1;entryX=0.5;entryY=1;entryDx=0;entryDy=0;exitX=1;exitY=0.5;exitDx=0;exitDy=0;exitPerimeter=0;" parent="1" source="9dohXg2FG20YzdyysSwt-2" target="_Ceq1OB2dmYE29qhMk_X-99" edge="1">
          <mxGeometry relative="1" as="geometry">
            <mxPoint x="757.5" y="553" as="targetPoint" />
            <mxPoint x="269.5" y="1003" as="sourcePoint" />
            <Array as="points">
              <mxPoint x="564.5" y="945" />
            </Array>
          </mxGeometry>
        </mxCell>
        <mxCell id="_Ceq1OB2dmYE29qhMk_X-81" value="是" style="edgeLabel;html=1;align=center;verticalAlign=middle;resizable=0;points=[];" parent="_Ceq1OB2dmYE29qhMk_X-47" vertex="1" connectable="0">
          <mxGeometry x="-0.7836" relative="1" as="geometry">
            <mxPoint x="38" as="offset" />
          </mxGeometry>
        </mxCell>
        <mxCell id="_Ceq1OB2dmYE29qhMk_X-80" style="edgeStyle=orthogonalEdgeStyle;rounded=0;orthogonalLoop=1;jettySize=auto;html=1;exitX=0.5;exitY=1;exitDx=0;exitDy=0;entryX=0.5;entryY=0;entryDx=0;entryDy=0;entryPerimeter=0;exitPerimeter=0;" parent="1" source="9dohXg2FG20YzdyysSwt-2" target="_Ceq1OB2dmYE29qhMk_X-78" edge="1">
          <mxGeometry relative="1" as="geometry" />
        </mxCell>
        <mxCell id="9dohXg2FG20YzdyysSwt-4" value="否" style="edgeLabel;html=1;align=center;verticalAlign=middle;resizable=0;points=[];" vertex="1" connectable="0" parent="_Ceq1OB2dmYE29qhMk_X-80">
          <mxGeometry x="-0.1776" y="1" relative="1" as="geometry">
            <mxPoint as="offset" />
          </mxGeometry>
        </mxCell>
        <mxCell id="9dohXg2FG20YzdyysSwt-3" style="edgeStyle=orthogonalEdgeStyle;rounded=0;orthogonalLoop=1;jettySize=auto;html=1;exitX=1;exitY=0.5;exitDx=0;exitDy=0;entryX=0;entryY=0.5;entryDx=0;entryDy=0;entryPerimeter=0;" edge="1" parent="1" source="_Ceq1OB2dmYE29qhMk_X-45" target="9dohXg2FG20YzdyysSwt-2">
          <mxGeometry relative="1" as="geometry" />
        </mxCell>
        <mxCell id="_Ceq1OB2dmYE29qhMk_X-45" value="【上涨计数】减1，更新【前次价格】" style="rounded=1;whiteSpace=wrap;html=1;absoluteArcSize=1;arcSize=14;strokeWidth=2;" parent="1" vertex="1">
          <mxGeometry x="29.5" y="907.5" width="100" height="75" as="geometry" />
        </mxCell>
        <mxCell id="_Ceq1OB2dmYE29qhMk_X-83" style="edgeStyle=orthogonalEdgeStyle;rounded=0;orthogonalLoop=1;jettySize=auto;html=1;exitX=1;exitY=0.5;exitDx=0;exitDy=0;exitPerimeter=0;entryX=0.5;entryY=1;entryDx=0;entryDy=0;" parent="1" source="_Ceq1OB2dmYE29qhMk_X-78" target="_Ceq1OB2dmYE29qhMk_X-99" edge="1">
          <mxGeometry relative="1" as="geometry" />
        </mxCell>
        <mxCell id="_Ceq1OB2dmYE29qhMk_X-84" value="是" style="edgeLabel;html=1;align=center;verticalAlign=middle;resizable=0;points=[];" parent="_Ceq1OB2dmYE29qhMk_X-83" vertex="1" connectable="0">
          <mxGeometry x="-0.0352" relative="1" as="geometry">
            <mxPoint x="-127" y="49" as="offset" />
          </mxGeometry>
        </mxCell>
        <mxCell id="9dohXg2FG20YzdyysSwt-5" style="edgeStyle=orthogonalEdgeStyle;rounded=0;orthogonalLoop=1;jettySize=auto;html=1;exitX=0.5;exitY=1;exitDx=0;exitDy=0;exitPerimeter=0;entryX=1;entryY=0.5;entryDx=0;entryDy=0;" edge="1" parent="1" source="_Ceq1OB2dmYE29qhMk_X-78" target="_Ceq1OB2dmYE29qhMk_X-17">
          <mxGeometry relative="1" as="geometry">
            <mxPoint x="510" y="300" as="targetPoint" />
            <Array as="points">
              <mxPoint x="224" y="880" />
              <mxPoint x="640" y="880" />
              <mxPoint x="640" y="285" />
            </Array>
          </mxGeometry>
        </mxCell>
        <mxCell id="_Ceq1OB2dmYE29qhMk_X-78" value="本次价格是否低于止损价（&lt;font color=&quot;#ff0000&quot;&gt;，或按本次跌幅计算，下次价格是否会到达止损价&lt;/font&gt;）？" style="strokeWidth=2;html=1;shape=mxgraph.flowchart.decision;whiteSpace=wrap;" parent="1" vertex="1">
          <mxGeometry x="139.5" y="1033" width="168" height="90" as="geometry" />
        </mxCell>
        <mxCell id="_Ceq1OB2dmYE29qhMk_X-97" style="edgeStyle=orthogonalEdgeStyle;rounded=0;orthogonalLoop=1;jettySize=auto;html=1;exitX=0.5;exitY=0;exitDx=0;exitDy=0;exitPerimeter=0;" parent="1" source="_Ceq1OB2dmYE29qhMk_X-95" target="_Ceq1OB2dmYE29qhMk_X-17" edge="1">
          <mxGeometry relative="1" as="geometry" />
        </mxCell>
        <mxCell id="_Ceq1OB2dmYE29qhMk_X-98" value="否" style="edgeLabel;html=1;align=center;verticalAlign=middle;resizable=0;points=[];" parent="_Ceq1OB2dmYE29qhMk_X-97" vertex="1" connectable="0">
          <mxGeometry x="-0.0857" relative="1" as="geometry">
            <mxPoint x="1" as="offset" />
          </mxGeometry>
        </mxCell>
        <mxCell id="_Ceq1OB2dmYE29qhMk_X-100" value="是" style="edgeStyle=orthogonalEdgeStyle;rounded=0;orthogonalLoop=1;jettySize=auto;html=1;exitX=1;exitY=0.5;exitDx=0;exitDy=0;exitPerimeter=0;entryX=0.5;entryY=1;entryDx=0;entryDy=0;" parent="1" source="_Ceq1OB2dmYE29qhMk_X-95" target="_Ceq1OB2dmYE29qhMk_X-99" edge="1">
          <mxGeometry relative="1" as="geometry" />
        </mxCell>
        <mxCell id="_Ceq1OB2dmYE29qhMk_X-95" value="本次为下跌，且当前价格低于或等于止损价？" style="strokeWidth=2;html=1;shape=mxgraph.flowchart.decision;whiteSpace=wrap;fontColor=#FF0000;" parent="1" vertex="1">
          <mxGeometry x="337" y="640" width="100" height="90" as="geometry" />
        </mxCell>
        <mxCell id="_Ceq1OB2dmYE29qhMk_X-101" style="edgeStyle=orthogonalEdgeStyle;rounded=0;orthogonalLoop=1;jettySize=auto;html=1;exitX=0.5;exitY=0;exitDx=0;exitDy=0;" parent="1" source="_Ceq1OB2dmYE29qhMk_X-99" edge="1">
          <mxGeometry relative="1" as="geometry">
            <mxPoint x="80" y="110" as="targetPoint" />
            <Array as="points">
              <mxPoint x="565" y="110" />
            </Array>
          </mxGeometry>
        </mxCell>
        <mxCell id="_Ceq1OB2dmYE29qhMk_X-99" value="卖出" style="rounded=1;whiteSpace=wrap;html=1;absoluteArcSize=1;arcSize=14;strokeWidth=2;" parent="1" vertex="1">
          <mxGeometry x="530" y="424.38" width="70.5" height="241.25" as="geometry" />
        </mxCell>
        <mxCell id="_Ceq1OB2dmYE29qhMk_X-103" value="在刚买入不久后就跌，是否考虑在跌幅不大时，&lt;br&gt;继续持有一段时间，以观看行情？" style="text;html=1;align=center;verticalAlign=middle;resizable=0;points=[];autosize=1;strokeColor=none;" parent="1" vertex="1">
          <mxGeometry x="840" y="160" width="270" height="30" as="geometry" />
        </mxCell>
        <mxCell id="9dohXg2FG20YzdyysSwt-2" value="【上涨计数】是否低于或等于卖出阈值e？" style="strokeWidth=2;html=1;shape=mxgraph.flowchart.decision;whiteSpace=wrap;" vertex="1" parent="1">
          <mxGeometry x="174" y="900" width="100" height="90" as="geometry" />
        </mxCell>
        <mxCell id="9dohXg2FG20YzdyysSwt-8" value="是" style="edgeStyle=orthogonalEdgeStyle;rounded=0;orthogonalLoop=1;jettySize=auto;html=1;exitX=1;exitY=0.5;exitDx=0;exitDy=0;exitPerimeter=0;entryX=0;entryY=0.5;entryDx=0;entryDy=0;entryPerimeter=0;" edge="1" parent="1" source="9dohXg2FG20YzdyysSwt-6" target="9dohXg2FG20YzdyysSwt-9">
          <mxGeometry relative="1" as="geometry">
            <mxPoint x="179.5" y="415" as="targetPoint" />
          </mxGeometry>
        </mxCell>
        <mxCell id="9dohXg2FG20YzdyysSwt-13" style="edgeStyle=orthogonalEdgeStyle;rounded=0;orthogonalLoop=1;jettySize=auto;html=1;exitX=0.5;exitY=1;exitDx=0;exitDy=0;exitPerimeter=0;entryX=0.5;entryY=0;entryDx=0;entryDy=0;entryPerimeter=0;" edge="1" parent="1" source="9dohXg2FG20YzdyysSwt-6" target="9dohXg2FG20YzdyysSwt-12">
          <mxGeometry relative="1" as="geometry" />
        </mxCell>
        <mxCell id="9dohXg2FG20YzdyysSwt-14" value="否" style="edgeLabel;html=1;align=center;verticalAlign=middle;resizable=0;points=[];" vertex="1" connectable="0" parent="9dohXg2FG20YzdyysSwt-13">
          <mxGeometry x="-0.05" relative="1" as="geometry">
            <mxPoint as="offset" />
          </mxGeometry>
        </mxCell>
        <mxCell id="9dohXg2FG20YzdyysSwt-6" value="本次价格是否大于【前次价格】？" style="strokeWidth=2;html=1;shape=mxgraph.flowchart.decision;whiteSpace=wrap;" vertex="1" parent="1">
          <mxGeometry x="29.5" y="370" width="100" height="90" as="geometry" />
        </mxCell>
        <mxCell id="9dohXg2FG20YzdyysSwt-10" style="edgeStyle=orthogonalEdgeStyle;rounded=0;orthogonalLoop=1;jettySize=auto;html=1;exitX=1;exitY=0.5;exitDx=0;exitDy=0;exitPerimeter=0;entryX=0.5;entryY=0;entryDx=0;entryDy=0;" edge="1" parent="1" source="9dohXg2FG20YzdyysSwt-9" target="_Ceq1OB2dmYE29qhMk_X-42">
          <mxGeometry relative="1" as="geometry" />
        </mxCell>
        <mxCell id="9dohXg2FG20YzdyysSwt-11" value="是" style="edgeLabel;html=1;align=center;verticalAlign=middle;resizable=0;points=[];" vertex="1" connectable="0" parent="9dohXg2FG20YzdyysSwt-10">
          <mxGeometry x="-0.8557" y="2" relative="1" as="geometry">
            <mxPoint as="offset" />
          </mxGeometry>
        </mxCell>
        <mxCell id="9dohXg2FG20YzdyysSwt-9" value="本次价格相对最近一段时间内的最低价格的涨幅是否大于阈值a？" style="strokeWidth=2;html=1;shape=mxgraph.flowchart.decision;whiteSpace=wrap;" vertex="1" parent="1">
          <mxGeometry x="179" y="370" width="100" height="90" as="geometry" />
        </mxCell>
        <mxCell id="9dohXg2FG20YzdyysSwt-15" style="edgeStyle=orthogonalEdgeStyle;rounded=0;orthogonalLoop=1;jettySize=auto;html=1;exitX=0.5;exitY=1;exitDx=0;exitDy=0;exitPerimeter=0;" edge="1" parent="1" source="9dohXg2FG20YzdyysSwt-12" target="_Ceq1OB2dmYE29qhMk_X-24">
          <mxGeometry relative="1" as="geometry" />
        </mxCell>
        <mxCell id="9dohXg2FG20YzdyysSwt-16" value="否" style="edgeLabel;html=1;align=center;verticalAlign=middle;resizable=0;points=[];" vertex="1" connectable="0" parent="9dohXg2FG20YzdyysSwt-15">
          <mxGeometry x="-0.08" y="2" relative="1" as="geometry">
            <mxPoint x="-2" as="offset" />
          </mxGeometry>
        </mxCell>
        <mxCell id="9dohXg2FG20YzdyysSwt-23" style="edgeStyle=orthogonalEdgeStyle;rounded=0;orthogonalLoop=1;jettySize=auto;html=1;exitX=1;exitY=0.5;exitDx=0;exitDy=0;exitPerimeter=0;entryX=0;entryY=0.5;entryDx=0;entryDy=0;entryPerimeter=0;" edge="1" parent="1" source="9dohXg2FG20YzdyysSwt-12" target="9dohXg2FG20YzdyysSwt-21">
          <mxGeometry relative="1" as="geometry" />
        </mxCell>
        <mxCell id="9dohXg2FG20YzdyysSwt-12" value="本次价格相对最近一段时间内的最高价格的跌幅是否大于阈值b？" style="strokeWidth=2;html=1;shape=mxgraph.flowchart.decision;whiteSpace=wrap;" vertex="1" parent="1">
          <mxGeometry x="29.5" y="500" width="100" height="90" as="geometry" />
        </mxCell>
        <mxCell id="9dohXg2FG20YzdyysSwt-21" value="当前价相对于买入价的涨幅是否大于阈值c？" style="strokeWidth=2;html=1;shape=mxgraph.flowchart.decision;whiteSpace=wrap;" vertex="1" parent="1">
          <mxGeometry x="179.5" y="500.01" width="100" height="90" as="geometry" />
        </mxCell>
      </root>
    </mxGraphModel>
  </diagram>
</mxfile>
